Percy.Jackson.And.The.Olympians.The.Lightning.Thief.mp4


Format                           : MPEG-4
File size                        : 695 MiB
Duration                         : 1h 53mn
Overall bit rate                 : 854 Kbps
Writing application              : HandBrake 0.9.4 2009112300

Video
ID                               : 1
Format                           : AVC
Codec ID                         : mp4
Duration                         : 1h 53mn
Bit rate                         : 690 Kbps
Width                            : 718 pixels
Height                           : 436 pixels
Display aspect ratio             : 2.35:1
Frame rate                       : 25.000 fps
Stream size                      : 561 MiB (81%)
Writing library                  : x264 core 79

Audio

Format                           : AAC
Duration                         : 1h 53mn
Bit rate                         : 160 Kbps
Maximum bit rate                 : 228 Kbps
Channel(s)                       : 2 channels
Channel positions                : Front: L R
Sampling rate                    : 48.0 KHz
Stream size                      : 130 MiB (19%)
Language                         : English


